<svg width="18" height="18" viewBox="0 0 18 18" fill="none" xmlns="http://www.w3.org/2000/svg">
  <path d="M3 14.25V12.75H4.5V7.5C4.5 6.4625 4.8125 5.54075 5.4375 4.73475C6.0625 3.92875 6.875 3.4005 7.875 3.15V2.625C7.875 2.3125 7.9845 2.047 8.2035 1.8285C8.4225 1.61 8.688 1.5005 9 1.5C9.3125 1.5 9.57825 1.6095 9.79725 1.8285C10.0162 2.0475 10.1255 2.313 10.125 2.625V3.15C11.125 3.4 11.9375 3.92825 12.5625 4.73475C13.1875 5.54125 13.5 6.463 13.5 7.5V12.75H15V14.25H3ZM9 16.5C8.5875 16.5 8.2345 16.3533 7.941 16.0597C7.6475 15.7662 7.5005 15.413 7.5 15H10.5C10.5 15.4125 10.3533 15.7657 10.0598 16.0597C9.76625 16.3538 9.413 16.5005 9 16.5ZM6 12.75H12V7.5C12 6.675 11.7063 5.96875 11.1187 5.38125C10.5312 4.79375 9.825 4.5 9 4.5C8.175 4.5 7.46875 4.79375 6.88125 5.38125C6.29375 5.96875 6 6.675 6 7.5V12.75Z" fill="#3F4945"/>
</svg>