<svg width="24" height="24" viewBox="0 0 24 24" fill="none" xmlns="http://www.w3.org/2000/svg">
<path d="M5 21C4.45 21 3.979 20.804 3.587 20.412C3.195 20.02 2.99934 19.5493 3 19V5C3 4.45 3.196 3.979 3.588 3.587C3.98 3.195 4.45067 2.99934 5 3H9.175C9.35834 2.41667 9.71667 1.93734 10.25 1.562C10.7833 1.18667 11.3667 0.999335 12 1C12.6667 1 13.2627 1.18767 13.788 1.563C14.3133 1.93834 14.6673 2.41733 14.85 3H19C19.55 3 20.021 3.196 20.413 3.588C20.805 3.98 21.0007 4.45067 21 5V19C21 19.55 20.804 20.021 20.412 20.413C20.02 20.805 19.5493 21.0007 19 21H5ZM5 19H19V5H17V8H7V5H5V19ZM12 5C12.2833 5 12.521 4.904 12.713 4.712C12.905 4.52 13.0007 4.28267 13 4C13 3.71667 12.904 3.479 12.712 3.287C12.52 3.095 12.2827 2.99934 12 3C11.7167 3 11.479 3.096 11.287 3.288C11.095 3.48 10.9993 3.71734 11 4C11 4.28334 11.096 4.521 11.288 4.713C11.48 4.905 11.7173 5.00067 12 5Z" fill="#171D1A"/>
</svg>
