<svg xmlns="http://www.w3.org/2000/svg" width="24" height="24" viewBox="0 0 24 24" fill="none">
  <path d="M7 14H17C17.2833 14 17.521 13.904 17.713 13.712C17.905 13.52 18.0007 13.2827 18 13C18 12.7167 17.904 12.4793 17.712 12.288C17.52 12.0967 17.2827 12.0007 17 12H7C6.71667 12 6.47933 12.096 6.288 12.288C6.09667 12.48 6.00067 12.7173 6 13C6 13.2833 6.096 13.521 6.288 13.713C6.48 13.905 6.71733 14.0007 7 14ZM7 11H17C17.2833 11 17.521 10.904 17.713 10.712C17.905 10.52 18.0007 10.2827 18 10C18 9.71667 17.904 9.47933 17.712 9.288C17.52 9.09667 17.2827 9.00067 17 9H7C6.71667 9 6.47933 9.096 6.288 9.288C6.09667 9.48 6.00067 9.71733 6 10C6 10.2833 6.096 10.521 6.288 10.713C6.48 10.905 6.71733 11.0007 7 11ZM7 8H17C17.2833 8 17.521 7.904 17.713 7.712C17.905 7.52 18.0007 7.28267 18 7C18 6.71667 17.904 6.47933 17.712 6.288C17.52 6.09667 17.2827 6.00067 17 6H7C6.71667 6 6.47933 6.096 6.288 6.288C6.09667 6.48 6.00067 6.71733 6 7C6 7.28333 6.096 7.521 6.288 7.713C6.48 7.905 6.71733 8.00067 7 8ZM4 18C3.45 18 2.97933 17.8043 2.588 17.413C2.19667 17.0217 2.00067 16.5507 2 16V4C2 3.45 2.196 2.97933 2.588 2.588C2.98 2.19667 3.45067 2.00067 4 2H20C20.55 2 21.021 2.196 21.413 2.588C21.805 2.98 22.0007 3.45067 22 4V19.575C22 20.025 21.796 20.3377 21.388 20.513C20.98 20.6883 20.6173 20.6173 20.3 20.3L18 18H4ZM18.85 16L20 17.125V4H4V16H18.85Z" fill="#171D1A"/>
</svg>