<svg xmlns="http://www.w3.org/2000/svg" width="24" height="24" viewBox="0 0 24 24" fill="none">
  <path d="M6 20C5.16667 20 4.45833 19.7083 3.875 19.125C3.29167 18.5417 3 17.8333 3 17H1V6C1 5.45 1.196 4.97933 1.588 4.588C1.98 4.19667 2.45067 4.00067 3 4H17V8H20L23 12V17H21C21 17.8333 20.7083 18.5417 20.125 19.125C19.5417 19.7083 18.8333 20 18 20C17.1667 20 16.4583 19.7083 15.875 19.125C15.2917 18.5417 15 17.8333 15 17H9C9 17.8333 8.70833 18.5417 8.125 19.125C7.54167 19.7083 6.83333 20 6 20ZM6 18C6.28333 18 6.521 17.904 6.713 17.712C6.905 17.52 7.00067 17.2827 7 17C7 16.7167 6.904 16.4793 6.712 16.288C6.52 16.0967 6.28267 16.0007 6 16C5.71667 16 5.47933 16.096 5.288 16.288C5.09667 16.48 5.00067 16.7173 5 17C5 17.2833 5.096 17.521 5.288 17.713C5.48 17.905 5.71733 18.0007 6 18ZM3 15H3.8C4.08333 14.7 4.40833 14.4583 4.775 14.275C5.14167 14.0917 5.55 14 6 14C6.45 14 6.85833 14.0917 7.225 14.275C7.59167 14.4583 7.91667 14.7 8.2 15H15V6H3V15ZM18 18C18.2833 18 18.521 17.904 18.713 17.712C18.905 17.52 19.0007 17.2827 19 17C19 16.7167 18.904 16.4793 18.712 16.288C18.52 16.0967 18.2827 16.0007 18 16C17.7167 16 17.4793 16.096 17.288 16.288C17.0967 16.48 17.0007 16.7173 17 17C17 17.2833 17.096 17.521 17.288 17.713C17.48 17.905 17.7173 18.0007 18 18ZM17 13H21.25L19 10H17V13Z" fill="#3F4945"/>
</svg>