<svg width="24" height="24" viewBox="0 0 24 24" fill="none" xmlns="http://www.w3.org/2000/svg">
<path d="M19.1053 21H4.89474C4.37368 21 3.92779 20.8043 3.55705 20.413C3.18632 20.0217 3.00063 19.5507 3 19V5C3 4.45 3.18568 3.97933 3.55705 3.588C3.92842 3.19667 4.37432 3.00067 4.89474 3H19.1053C19.6263 3 20.0725 3.196 20.4439 3.588C20.8153 3.98 21.0006 4.45067 21 5V19C21 19.55 20.8146 20.021 20.4439 20.413C20.0732 20.805 19.6269 21.0007 19.1053 21ZM4.89474 8H19.1053V5H4.89474V8ZM7.73684 10H4.89474V19H7.73684V10ZM16.2632 10V19H19.1053V10H16.2632ZM14.3684 10H9.63158V19H14.3684V10Z" fill="#171D1A"/>
</svg>
