<svg width="24" height="24" viewBox="0 0 24 24" fill="none" xmlns="http://www.w3.org/2000/svg">
<path d="M12 19C13.1167 19 14.0627 18.6083 14.838 17.825C15.6133 17.0417 16.0007 16.1 16 15V12C16 11.7167 15.904 11.4793 15.712 11.288C15.52 11.0967 15.2827 11.0007 15 11C14.7167 11 14.4793 11.096 14.288 11.288C14.0967 11.48 14.0007 11.7173 14 12V15C14 15.55 13.8083 16.021 13.425 16.413C13.0417 16.805 12.5667 17.0007 12 17C11.45 17 10.9793 16.8043 10.588 16.413C10.1967 16.0217 10.0007 15.5507 10 15V9.5C10 9.35 10.05 9.229 10.15 9.137C10.25 9.045 10.3667 8.99933 10.5 9C10.65 9 10.771 9.046 10.863 9.138C10.955 9.23 11.0007 9.35067 11 9.5V14C11 14.2833 11.096 14.521 11.288 14.713C11.48 14.905 11.7173 15.0007 12 15C12.2833 15 12.521 14.904 12.713 14.712C12.905 14.52 13.0007 14.2827 13 14V9.5C13 8.8 12.7583 8.20833 12.275 7.725C11.7917 7.24167 11.2 7 10.5 7C9.8 7 9.20833 7.24167 8.725 7.725C8.24167 8.20833 8 8.8 8 9.5V15C8 16.1 8.39167 17.0417 9.175 17.825C9.95833 18.6083 10.9 19 12 19ZM6 22C5.45 22 4.97933 21.8043 4.588 21.413C4.19667 21.0217 4.00067 20.5507 4 20V4C4 3.45 4.196 2.97933 4.588 2.588C4.98 2.19667 5.45067 2.00067 6 2H15L20 7V20C20 20.55 19.8043 21.021 19.413 21.413C19.0217 21.805 18.5507 22.0007 18 22H6ZM6 20H18V8H15C14.7167 8 14.4793 7.904 14.288 7.712C14.0967 7.52 14.0007 7.28267 14 7V4H6V20Z" fill="#0F154B"/>
</svg>
