<svg xmlns="http://www.w3.org/2000/svg" width="24" height="24" viewBox="0 0 24 24" fill="none">
  <path d="M12 19C9.65 17.2667 7.896 15.5833 6.738 13.95C5.58 12.3167 5.00067 10.7167 5 9.15C5 7.96667 5.21267 6.929 5.638 6.037C6.06333 5.145 6.609 4.39933 7.275 3.8C7.94167 3.2 8.69167 2.75 9.525 2.45C10.3583 2.15 11.1833 2 12 2C12.8167 2 13.6417 2.15 14.475 2.45C15.3083 2.75 16.0583 3.2 16.725 3.8C17.3917 4.4 17.9377 5.146 18.363 6.038C18.7883 6.93 19.0007 7.96733 19 9.15C19 10.7167 18.421 12.3167 17.263 13.95C16.105 15.5833 14.3507 17.2667 12 19ZM12 11C12.55 11 13.021 10.8043 13.413 10.413C13.805 10.0217 14.0007 9.55067 14 9C14 8.45 13.8043 7.97933 13.413 7.588C13.0217 7.19667 12.5507 7.00067 12 7C11.45 7 10.9793 7.196 10.588 7.588C10.1967 7.98 10.0007 8.45067 10 9C10 9.55 10.196 10.021 10.588 10.413C10.98 10.805 11.4507 11.0007 12 11ZM5 22V20H19V22H5Z" fill="#3F4945"/>
</svg>