<svg xmlns="http://www.w3.org/2000/svg" width="14" height="20" viewBox="0 0 14 20" fill="none">
<path d="M7 14.475C8.65 13.1417 9.896 11.8583 10.738 10.625C11.58 9.39167 12.0007 8.23333 12 7.15C12 6.21667 11.829 5.421 11.487 4.763C11.145 4.105 10.7243 3.57167 10.225 3.163C9.725 2.75433 9.18333 2.45833 8.6 2.275C8.01667 2.09167 7.48333 2 7 2C6.51667 2 5.98333 2.09167 5.4 2.275C4.81667 2.45833 4.275 2.75433 3.775 3.163C3.275 3.571 2.85433 4.10433 2.513 4.763C2.17167 5.42167 2.00067 6.21733 2 7.15C2 8.23333 2.421 9.39167 3.263 10.625C4.105 11.8583 5.35067 13.1417 7 14.475ZM7 17C4.65 15.2667 2.896 13.5833 1.738 11.95C0.58 10.3167 0.000666667 8.71667 0 7.15C0 5.96667 0.212667 4.929 0.638 4.037C1.06333 3.145 1.609 2.39933 2.275 1.8C2.94167 1.2 3.69167 0.75 4.525 0.45C5.35833 0.15 6.18333 0 7 0C7.81667 0 8.64167 0.15 9.475 0.45C10.3083 0.75 11.0583 1.2 11.725 1.8C12.3917 2.4 12.9377 3.146 13.363 4.038C13.7883 4.93 14.0007 5.96733 14 7.15C14 8.71667 13.421 10.3167 12.263 11.95C11.105 13.5833 9.35067 15.2667 7 17ZM7 9C7.55 9 8.021 8.80433 8.413 8.413C8.805 8.02167 9.00067 7.55067 9 7C9 6.45 8.80433 5.97933 8.413 5.588C8.02167 5.19667 7.55067 5.00067 7 5C6.45 5 5.97933 5.196 5.588 5.588C5.19667 5.98 5.00067 6.45067 5 7C5 7.55 5.196 8.021 5.588 8.413C5.98 8.805 6.45067 9.00067 7 9ZM0 20V18H14V20H0Z" fill="#3F4945"/>
</svg>